# xmcd
#
# Track frame offsets:
#	150
#	14050
#	28100
#	40108
#	51744
#	63477
#	74726
#	87740
#	99614
#	111803
#	125841
#	137581
#	152084
#	166889
#	179608
#	193516
#	205526
#	216874
#	229082
#	240986
#	253269
#	266082
#	279810
#	291238
#	303501
#
# Disc length: 4215 seconds
#
# Revision: 0
# Processed by: cddbd v1.5.1PL0 Copyright (c) Steve Scherf et al.
# Submitted via: EasyCDDAExtractor 7.5.0.1
#
DISCID=84107519
DTITLE=Various Artist - Midnight At The Barrelhouse (Rockin' California R&B 1
DTITLE=945-51) Disc B
DYEAR=2003
DGENRE=R&B
TTITLE0=Joe Swift - That's Your Last Boogie
TTITLE1=Joe Swift - Lovin' Baby Blues
TTITLE2=Joe Swift - Crazy 'Bout Your Cookin'
TTITLE3=Joe Swift - Right Now Baby
TTITLE4=Johhny Otis - Boogie Guitar
TTITLE5=Redd Lyte - Ain't Nothin' Shakin'
TTITLE6=Johhny Otis - Hangover Blues
TTITLE7=Little Esther - Get Together Blues
TTITLE8=Devonia Williams - I'm Not Falling In Love With You
TTITLE9=The Robins - If It's So Baby
TTITLE10=The Robins - Our Romance Is Gone
TTITLE11=The Robins - If I Didn't Love You So
TTITLE12=The Robins - Rain In My Eyes
TTITLE13=Little Esther - Double Crossing Blues
TTITLE14=Johhny Otis - Headhunter
TTITLE15=Redd Lyte - Going To See My Baby
TTITLE16=Redd Lyte - The Little Red Hen
TTITLE17=Johhny Otis - New Orleans Shuffle
TTITLE18=The Robins - The Turkey Hop, Pt. I
TTITLE19=The Robins - The Turkey Hop, Pt. II
TTITLE20=Johhny Otis - Blues Nocturne
TTITLE21=Mel Walker - Cry Baby
TTITLE22=Little Esther - Lover's Lane Boogie
TTITLE23=The Robins - I Found Out My Troubles
TTITLE24=Little Esther - Misery
EXTD=
EXTT0=
EXTT1=
EXTT2=
EXTT3=
EXTT4=
EXTT5=
EXTT6=
EXTT7=
EXTT8=
EXTT9=
EXTT10=
EXTT11=
EXTT12=
EXTT13=
EXTT14=
EXTT15=
EXTT16=
EXTT17=
EXTT18=
EXTT19=
EXTT20=
EXTT21=
EXTT22=
EXTT23=
EXTT24=
PLAYORDER=
